<?xml version="1.0" encoding="utf-8"?>
<!-- Generator: Adobe Illustrator 24.0.3, SVG Export Plug-In . SVG Version: 6.00 Build 0)  -->
<svg version="1.1" id="Layer_1" xmlns="http://www.w3.org/2000/svg" xmlns:xlink="http://www.w3.org/1999/xlink" x="0px" y="0px"
	 viewBox="0 0 1588.2 375.5" style="enable-background:new 0 0 1588.2 375.5;" xml:space="preserve">
<style type="text/css">
	.st0{fill:none;stroke:#88898A;stroke-width:2;stroke-miterlimit:10;}
	.st1{fill:#7E8184;}
	.st2{fill:#F26632;}
</style>
<title>logo-Final-40-years-on-black</title>
<g id="MASTER">
	<line class="st0" x1="1166.4" y1="47.7" x2="1166.4" y2="375.5"/>
	<path class="st1" d="M1231.7,322.2l9.6,16.7l9.7-16.7h6l-13,21.4v11.9h-5.5v-12l-12.8-21.4h6V322.2z"/>
	<path class="st1" d="M1289.7,350.9v4.7h-23.8v-33.4h23.4v4.7h-17.9v9.5h15.5v4.4h-15.5V351h18.3V350.9z"/>
	<path class="st1" d="M1310.2,322.2h4.8l13.7,33.4h-5.8l-3.7-9.1h-13.4l-3.6,9.1h-5.8L1310.2,322.2z M1318.2,342.6l-5.6-14.3
		l-5.8,14.3H1318.2z"/>
	<path class="st1" d="M1337.6,355.6v-33.4h15.1c1.5,0,3,0.3,4.3,0.9s2.4,1.4,3.4,2.5c0.9,1,1.7,2.2,2.2,3.5s0.8,2.6,0.8,4
		c0,1.1-0.2,2.2-0.5,3.2s-0.8,2-1.4,2.9s-1.3,1.6-2.2,2.3c-0.8,0.6-1.8,1.1-2.8,1.4l8.2,12.7h-6.2L1351,344h-8v11.6H1337.6z
		 M1343,339.3h9.6c0.7,0,1.5-0.2,2.1-0.5s1.2-0.8,1.6-1.4c0.5-0.6,0.8-1.3,1.1-2c0.3-0.8,0.4-1.6,0.4-2.4s-0.2-1.6-0.5-2.4
		c-0.3-0.7-0.7-1.4-1.2-2s-1.1-1-1.8-1.3c-0.6-0.3-1.4-0.5-2.1-0.5h-9.3v12.5H1343z"/>
	<path class="st1" d="M1395,330c-0.4-0.4-0.9-0.8-1.4-1.1c-0.7-0.4-1.4-0.8-2.2-1.1c-0.9-0.4-1.8-0.6-2.7-0.9c-1-0.2-2-0.3-3.1-0.3
		c-1.8-0.1-3.6,0.3-5.1,1.2c-1.1,0.8-1.7,2.1-1.6,3.4c0,0.7,0.1,1.4,0.5,2s1,1,1.6,1.4c0.9,0.4,1.8,0.8,2.7,1c1.1,0.3,2.3,0.6,3.8,1
		c1.6,0.4,3.2,0.8,4.8,1.4c1.3,0.4,2.5,1,3.6,1.8c1,0.7,1.7,1.6,2.3,2.6c0.6,1.2,0.8,2.5,0.8,3.8c0,1.5-0.3,3-1,4.4
		c-0.7,1.2-1.6,2.2-2.7,3c-1.2,0.8-2.6,1.4-4,1.7c-1.6,0.4-3.3,0.6-4.9,0.5c-2.6,0-5.2-0.4-7.7-1.2c-2.4-0.7-4.7-1.9-6.7-3.4
		l2.5-4.5c0.6,0.5,1.2,1,1.8,1.4c0.9,0.5,1.8,1,2.8,1.4c1.1,0.4,2.3,0.8,3.4,1.1c1.3,0.3,2.6,0.5,3.9,0.5c1.7,0.1,3.5-0.3,5-1.1
		c1.1-0.7,1.8-1.9,1.8-3.2c0-0.8-0.2-1.5-0.7-2.1s-1.2-1.1-1.9-1.5c-1-0.5-2-0.9-3-1.1c-1.2-0.3-2.5-0.7-4-1.1s-3-0.8-4.5-1.4
		c-1.2-0.4-2.2-1-3.2-1.8c-0.8-0.6-1.5-1.5-1.9-2.4c-0.5-1.1-0.7-2.2-0.7-3.4c0-1.5,0.3-3,1-4.4c0.6-1.2,1.5-2.3,2.7-3.2
		c1.2-0.9,2.6-1.6,4-2c1.6-0.5,3.3-0.7,5-0.7c2.2,0,4.4,0.3,6.5,1.1c1.9,0.7,3.6,1.6,5.2,2.7L1395,330z"/>
	<path class="st1" d="M1436.1,322.2l-23.8,33.4h-6l23.8-33.4H1436.1z"/>
	<path class="st1" d="M1452.4,322.2h4.8l13.7,33.4h-5.8l-3.7-9.1H1448l-3.6,9.1h-5.8L1452.4,322.2z M1460.4,342.6l-5.6-14.3
		l-5.8,14.3H1460.4z"/>
	<path class="st1" d="M1485.2,332.1v23.5h-5.5v-33.4h4.3l19.8,24.1v-24h5.5v33.3h-4.5L1485.2,332.1z"/>
	<path class="st1" d="M1542.4,330c-0.4-0.4-0.9-0.8-1.4-1.1c-0.7-0.4-1.4-0.8-2.2-1.1c-0.9-0.4-1.8-0.6-2.7-0.8c-1-0.2-2-0.3-3-0.3
		c-1.8-0.1-3.6,0.3-5.1,1.2c-1.1,0.8-1.7,2.1-1.6,3.4c0,0.7,0.1,1.4,0.5,2s1,1,1.6,1.4c0.9,0.4,1.8,0.8,2.7,1c1.1,0.3,2.3,0.6,3.8,1
		c1.6,0.4,3.2,0.8,4.8,1.4c1.3,0.4,2.5,1,3.6,1.8c1,0.7,1.7,1.6,2.3,2.6c0.6,1.2,0.8,2.5,0.8,3.8c0,1.5-0.3,3-1,4.4
		c-0.7,1.2-1.6,2.2-2.7,3c-1.2,0.8-2.6,1.4-4,1.7c-1.6,0.4-3.3,0.6-4.9,0.5c-2.6,0-5.2-0.4-7.7-1.2c-2.4-0.7-4.7-1.9-6.7-3.4
		l2.5-4.5c0.6,0.5,1.2,1,1.8,1.4c0.9,0.5,1.8,1,2.8,1.4c1.1,0.4,2.3,0.8,3.4,1.1c1.3,0.3,2.6,0.5,3.9,0.5c1.7,0.1,3.5-0.3,5-1.1
		c1.1-0.7,1.8-1.9,1.8-3.2c0-0.8-0.2-1.5-0.7-2.1s-1.2-1.1-1.9-1.5c-1-0.5-2-0.9-3-1.1c-1.2-0.3-2.5-0.7-4-1.1s-3-0.8-4.5-1.4
		c-1.2-0.4-2.2-1-3.2-1.8c-0.8-0.6-1.5-1.5-1.9-2.4c-0.5-1.1-0.7-2.2-0.7-3.4c-0.1-3,1.3-5.8,3.6-7.5c1.2-0.9,2.6-1.6,4-2
		c1.6-0.5,3.3-0.7,5-0.7c2.2,0,4.4,0.3,6.5,1.1c1.9,0.7,3.6,1.6,5.2,2.7L1542.4,330z"/>
	<path class="st1" d="M1329.8,292.3V229h-120.1v-5.1l122-144.6h4.4V223h27.4v6h-27.4v63.3H1329.8z M1218.4,223h111.4V90.4
		L1218.4,223z"/>
	<path class="st1" d="M1481.1,295.3c-14.6-0.4-27.3-4-38.2-10.8c-10.8-6.7-20.1-15.4-27.4-25.8c-7.4-10.5-13.1-22.2-16.7-34.5
		c-7.6-24.6-7.5-51,0.5-75.4c3.9-12.5,9.8-24.2,17.5-34.8c7.4-10.1,16.9-18.7,27.8-25c11.1-6.5,23.8-9.8,36.7-9.6
		c14.6,0,27.3,3.4,38.2,10.4c10.8,6.8,20.2,15.7,27.5,26.2c7.4,10.7,13.1,22.5,16.7,35c3.6,11.8,5.5,24.1,5.6,36.5
		c0,13.1-2.1,26.2-6.1,38.7c-3.8,12.4-9.8,24.1-17.5,34.5c-7.5,10.1-16.9,18.6-27.8,24.9C1506.6,291.9,1494,295.3,1481.1,295.3z
		 M1399.4,187.3c0.5,12.3,2.6,24.4,6.2,36.1c3.5,11.7,8.9,22.7,15.9,32.7c6.7,9.5,15.3,17.7,25.2,23.9c9.9,6.2,21.4,9.3,34.5,9.3
		c13.5,0,25.4-3.3,35.6-9.9c10.1-6.5,18.8-15,25.6-24.9c6.9-10.1,12.1-21.2,15.4-33c3.3-11.1,5-22.6,5.2-34.2
		c0-12.3-1.9-24.5-5.6-36.1c-3.6-11.7-9-22.8-16.2-32.7c-6.9-9.6-15.7-17.7-25.7-23.9c-10.3-6.3-22.1-9.5-34.2-9.3
		c-13.5,0-25.4,3.3-35.6,9.9c-10.1,6.5-18.8,15.1-25.6,25c-6.9,10.1-12.1,21.2-15.4,33C1401.3,164.3,1399.5,175.7,1399.4,187.3z"/>
	<g id="Layer_1-2">
		<g id="Logo">
			<path class="st2" d="M891.3,213.9c-29.8,0.5-54.3-23.3-54.8-53.1c0-0.6,0-1.2,0-1.9v-0.4c-0.5-30,23.3-54.7,53.3-55.3
				c0.9,0,1.7,0,2.6,0c15.8-0.8,31.1,5.2,42.2,16.5l-15,17.2c-7.2-7.5-17-11.8-27.4-12.1c-18,0-31,15-31,33.3v0.4
				c0,18.3,12.7,33.6,31,33.6c12.2,0,19.7-4.9,28.1-12.5l15,15.1c-10.9,12.8-27.1,19.8-43.8,19.1"/>
			<path class="st2" d="M773,213.9c-33.3,0-56.2-23.4-56.2-55v-0.4c-0.2-30.3,24.2-55,54.5-55.3l0,0c0.5,0,1,0,1.4,0
				c15.5-0.9,30.7,4.4,42.3,14.7l-14.8,17.9c-7.6-7.2-17.7-11.1-28.2-10.9c-17.2,0-30.7,15.1-30.7,33.3v0.2
				c0,19.6,13.4,33.9,32.4,33.9c7.9,0.2,15.6-2,22.2-6.4v-15.2h-23.8v-20.3h46.4v46.5c-12.7,11-28.9,17-45.7,16.9"/>
			<path class="st2" d="M661.9,213.9c-29.8,0.5-54.3-23.3-54.8-53.1c0-0.6,0-1.2,0-1.9v-0.4c-0.5-30,23.4-54.7,53.3-55.3
				c0.8,0,1.7,0,2.6,0c15.8-0.8,31.1,5.2,42.2,16.5l-15,17.2c-7.2-7.5-17-11.8-27.4-12.1c-18,0-31,15-31,33.3v0.4
				c0,18.3,12.7,33.6,31,33.6c12.2,0,19.7-4.9,28.1-12.5l15,15.1c-10.9,12.8-27.1,19.8-43.8,19.1"/>
			<path class="st2" d="M552.1,213.6c-16.7,0-32.9-6.1-45.4-17.2l13.9-16.3c8.8,8,20.1,12.6,32,12.9c9.6,0,15.4-3.8,15.4-10.1v-0.3
				c0-6-3.7-9-21.5-13.6c-21.5-5.5-35.4-11.5-35.4-32.7V136c0-19.4,15.6-32.2,37.4-32.2c14.4-0.2,28.4,4.6,39.7,13.6L576,135.1
				c-7.9-6.3-17.6-10-27.7-10.7c-9,0-13.8,4.3-13.8,9.3v0.3c0,7,4.6,9.3,23,14.1c21.5,5.6,33.9,13.4,33.9,32.1v0.3
				C591.4,201.7,575.2,213.6,552.1,213.6"/>
			<path class="st1" d="M522,291.9c-5.6,0-11.1-2-15.3-5.8l4.7-5.6c2.9,2.7,6.8,4.2,10.8,4.3c3.2,0,5.2-1.3,5.2-3.4l0,0
				c0-2-1.2-3-7.3-4.6c-7.3-1.9-12-3.9-12-11l0,0c0-6.5,5.2-10.9,12.6-10.9c4.9-0.1,9.6,1.5,13.4,4.6l-4.3,6c-2.7-2.1-6-3.3-9.4-3.6
				c-3,0-4.6,1.4-4.6,3.1l0,0c0,2.4,1.5,3.1,7.8,4.7c7.3,1.9,11.4,4.5,11.4,10.8l0,0c0,7.2-5.5,11.2-13.2,11.2"/>
			<path class="st1" d="M561.7,292.1c-10,0.2-18.3-7.8-18.5-17.9v-0.6l0,0c-0.2-10.1,7.8-18.5,18-18.7l0,0h0.8
				c5.3-0.3,10.5,1.7,14.2,5.5l-5.1,5.6c-2.4-2.5-5.7-4-9.2-4.1c-5.9,0.1-10.6,5-10.5,10.9c0,0.1,0,0.2,0,0.4l0,0
				c-0.4,5.9,4.1,11,10,11.3h0.4c3.6,0,7.1-1.6,9.5-4.3l5,5.1c-3.7,4.3-9.1,6.7-14.8,6.5"/>
			<path class="st1" d="M607.4,267.7c0-3.4-2.4-5.2-6.2-5.2h-7.9v10.4h8C605.2,272.9,607.4,270.8,607.4,267.7L607.4,267.7z
				 M607.4,291.5l-7.7-11.5h-6.2v11.6h-8v-36H602c8.6,0,13.6,4.3,13.6,11.9l0,0c0.2,5.1-2.9,9.6-7.8,11.2l8.6,12.9L607.4,291.5z"/>
			<polygon class="st1" points="625.2,291.5 625.2,255.4 652.5,255.4 652.5,262.5 633.1,262.5 633.1,269.8 650.1,269.8 650.1,276.9 
				633.1,276.9 633.1,284.4 652.7,284.4 652.7,291.5 			"/>
			<polygon class="st1" points="662.3,291.5 662.3,255.4 689.5,255.4 689.5,262.5 670.2,262.5 670.2,269.8 687.2,269.8 687.2,276.9 
				670.2,276.9 670.2,284.4 689.7,284.4 689.7,291.5 			"/>
			<polygon class="st1" points="724.7,291.5 707.2,268.6 707.2,291.5 699.4,291.5 699.4,255.4 706.7,255.4 723.6,277.6 723.6,255.4 
				731.4,255.4 731.4,291.5 			"/>
			<path class="st1" d="M777.8,292.1c-10,0.2-18.3-7.8-18.5-17.9c0-0.2,0-0.4,0-0.6l0,0c-0.2-10.1,7.8-18.5,17.9-18.7c0,0,0,0,0.1,0
				h0.8c5.3-0.3,10.5,1.7,14.2,5.5l-5.1,5.6c-2.4-2.5-5.7-4-9.2-4.1c-5.9,0.2-10.5,5.1-10.4,11l0,0c0,0.2,0,0.3,0,0.5l0,0
				c-0.4,5.9,4.1,11,10,11.3h0.4c3.6,0,7.1-1.6,9.5-4.3l5,5.1c-3.7,4.3-9.1,6.6-14.7,6.4"/>
			<path class="st1" d="M827.3,356.9c-10,0.2-18.3-7.8-18.5-17.9l0,0v-0.6l0,0c-0.2-10.1,7.8-18.5,18-18.7l0,0h0.8
				c5.3-0.3,10.5,1.7,14.2,5.5l-5.1,5.8c-2.4-2.5-5.7-4-9.2-4.1c-5.9,0.1-10.6,5-10.5,10.9l0,0c0,0.1,0,0.2,0,0.4l0,0
				c-0.4,5.9,4.1,11,10,11.3h0.4c3.6,0,7.1-1.6,9.5-4.3l5,5.1c-3.7,4.3-9.1,6.7-14.8,6.5"/>
			<path class="st1" d="M828.9,273.5c0.2-6-4.5-11.1-10.6-11.4H818c-6,0-10.8,4.8-10.8,10.7l0,0c0,0.2,0,0.3,0,0.5l0,0
				c-0.2,6,4.5,11.1,10.5,11.3h0.3c6,0,10.8-4.8,10.8-10.8C828.9,273.8,828.9,273.6,828.9,273.5L828.9,273.5z M818,292.1
				c-10.2,0.4-18.8-7.6-19.1-17.8l0,0c0-0.2,0-0.5,0-0.7l0,0c0.5-10.6,9.5-18.8,20-18.3c9.9,0.5,17.8,8.4,18.3,18.3l0,0
				c0,10.3-8.3,18.7-18.6,18.7l0,0H818"/>
			<polygon class="st1" points="875.1,291.5 875.1,268 864.9,283.4 864.7,283.4 854.7,268.1 854.7,291.5 846.9,291.5 846.9,255.4 
				855.5,255.4 864.9,270.7 874.4,255.4 882.9,255.4 882.9,291.5 			"/>
			<path class="st1" d="M914.7,268c0-3.6-2.4-5.5-6.4-5.5h-6.1v11h6.3c3.1,0.4,5.9-1.8,6.2-4.9l0,0
				C914.7,268.5,914.7,268.3,914.7,268L914.7,268z M908.2,280.6h-6v10.8h-8v-36H909c8.6,0,13.8,5.1,13.8,12.5l0,0
				C922.7,276.3,916.2,280.6,908.2,280.6"/>
			<path class="st1" d="M959.6,273.5c0.2-6-4.5-11.1-10.6-11.4h-0.4c-6,0-10.8,4.8-10.8,10.7l0,0c0,0.2,0,0.3,0,0.5l0,0
				c-0.2,6,4.5,11.1,10.6,11.4h0.3c6,0,10.8-4.8,10.9-10.7C959.6,273.8,959.6,273.6,959.6,273.5z M948.7,292.1
				c-10.2,0.4-18.8-7.6-19.1-17.8l0,0c0-0.2,0-0.5,0-0.7l0,0c0.5-10.6,9.5-18.8,20-18.3c9.9,0.5,17.8,8.4,18.3,18.3l0,0
				c0,10.3-8.3,18.7-18.7,18.7l0,0h-0.5"/>
			<path class="st1" d="M990.2,291.9c-5.6,0-11.1-2-15.3-5.8l4.7-5.6c2.9,2.7,6.8,4.2,10.8,4.3c3.2,0,5.2-1.3,5.2-3.4l0,0
				c0-2-1.2-3-7.3-4.6c-7.3-1.9-12-3.9-12-11l0,0c0-6.5,5.2-10.9,12.6-10.9c4.9-0.1,9.6,1.5,13.4,4.6l-4.3,6c-2.7-2.1-6-3.3-9.4-3.6
				c-3,0-4.6,1.4-4.6,3.1l0,0c0,2.4,1.5,3.1,7.8,4.7c7.3,1.9,11.4,4.5,11.4,10.8l0,0c0,7.2-5.5,11.2-13.2,11.2"/>
			<polygon class="st1" points="1013,291.5 1013,255.4 1040.2,255.4 1040.2,262.5 1020.8,262.5 1020.8,269.8 1037.9,269.8 
				1037.9,276.9 1020.8,276.9 1020.8,284.4 1040.5,284.4 1040.5,291.5 			"/>
			<path class="st1" d="M1072.1,267.7c0-3.4-2.4-5.2-6.2-5.2h-7.9v10.4h8C1069.9,272.9,1072.1,270.8,1072.1,267.7L1072.1,267.7z
				 M1072.1,291.5l-7.7-11.5h-6.2v11.6h-8v-36.1h16.5c8.6,0,13.6,4.3,13.6,11.9l0,0c0.2,5.1-2.9,9.6-7.8,11.2l8.6,12.9H1072.1z"/>
			<path class="st1" d="M1102.8,291.9c-5.6,0-11.1-2-15.3-5.8l4.7-5.6c3,2.7,6.8,4.2,10.8,4.3c3.3,0,5.2-1.3,5.2-3.4l0,0
				c0-2-1.2-3-7.3-4.6c-7.3-1.9-12-3.9-12-11l0,0c0-6.5,5.2-10.9,12.6-10.9c4.9-0.1,9.6,1.5,13.4,4.6l-4.3,6
				c-2.6-2.1-5.8-3.4-9.2-3.6c-3,0-4.6,1.4-4.6,3.1l0,0c0,2.4,1.6,3.1,7.8,4.7c7.3,1.9,11.4,4.5,11.4,10.8l0,0
				c0,7.2-5.5,11.2-13.2,11.2"/>
			<path class="st1" d="M526.6,356.4c-10,0.5-18.5-7.1-19-17.1c0,0,0,0,0-0.1c0-0.5,0-0.9,0-1.4l0,0c-0.1-10.2,8.2-18.6,18.4-18.7
				h0.5c5.2-0.3,10.3,1.5,14.2,5l-5,6c-2.5-2.4-5.9-3.7-9.4-3.7c-6,0.3-10.6,5.3-10.4,11.2l0,0c-0.5,5.9,4,11.1,9.9,11.6
				c0.3,0,0.7,0,1,0c2.7,0.1,5.3-0.7,7.5-2.2v-4.9h-8v-6.9H542v15.6C537.6,354.5,532.2,356.4,526.6,356.4"/>
			<path class="st1" d="M567.2,356.4c-9.7,0-15.6-5.4-15.6-16V320h8v20.4c0,5.8,2.9,8.9,7.8,8.9s7.8-2.9,7.8-8.6V320h8v20.4
				c0,10.9-6.2,16.3-15.8,16.3"/>
			<rect x="594" y="319.9" class="st1" width="8" height="36.1"/>
			<polygon class="st1" points="613.6,356 613.6,319.9 621.5,319.9 621.5,348.7 639.5,348.7 639.5,356 			"/>
			<path class="st1" d="M673,338c0.3-5.7-4.1-10.6-9.8-10.9l0,0c-0.4,0-0.7,0-1.1,0h-6.3v21.8h6.2c5.7,0.3,10.5-4,10.9-9.6
				c0-0.4,0-0.7,0-1.1L673,338z M662.2,356h-14.1v-36h14.1c9.9-0.7,18.5,6.8,19.1,16.7c0,0.4,0,0.8,0,1.2l0,0
				c0,10-8.1,18.1-18.1,18.1l0,0L662.2,356"/>
			<path class="st1" d="M1005.4,337.8c0.3-5.7-4.1-10.6-9.8-10.9l0,0c-0.4,0-0.7,0-1.1,0h-6.2v21.8h6.2c5.6,0.4,10.5-3.9,10.9-9.5
				c0-0.4,0-0.8,0-1.2V337.8z M994.5,355.8h-14.1v-36h14.1c9.9-0.7,18.5,6.8,19.2,16.7c0,0.4,0,0.8,0,1.2l0,0c0,10-8.1,18.1-18,18.1
				l0,0L994.5,355.8"/>
			<path class="st1" d="M737.6,338c0.2-6-4.5-11.1-10.6-11.4h-0.3c-6,0-10.8,4.8-10.8,10.7l0,0c0,0.2,0,0.3,0,0.5l0,0
				c-0.2,6,4.5,11.1,10.6,11.3h0.3c6,0,10.8-4.8,10.8-10.8V338L737.6,338z M726.5,356.4c-10.2,0.3-18.7-7.7-19-17.9c0,0,0,0,0-0.1
				s0-0.3,0-0.4l0,0c0.5-10.6,9.5-18.8,20-18.3c9.9,0.5,17.8,8.4,18.3,18.3l0,0c-0.2,10.3-8.6,18.5-18.9,18.4c0,0,0,0-0.1,0H726.5"
				/>
			<polygon class="st1" points="763.3,327.1 763.3,334.8 780.5,334.8 780.5,342 763.3,342 763.3,356 755.4,356 755.4,319.9 
				782.9,319.9 782.9,327.1 			"/>
			<path class="st1" d="M866.6,329.2l-4.8,11.7h9.6L866.6,329.2z M877.5,356l-3.3-8.2h-15.3l-3.3,8.1h-8.1l15.5-36.4h7.3l15.5,36.4
				L877.5,356z"/>
			<polygon class="st1" points="919.2,356 901.7,333 901.7,356 893.9,356 893.9,319.9 901.2,319.9 918.1,342.1 918.1,319.9 
				925.9,319.9 925.9,356 			"/>
			<path class="st1" d="M953.1,329.2l-4.8,11.7h9.6L953.1,329.2z M964,356l-3.3-8.2h-15.3l-3.3,8.1H934l15.4-36.4h7.4l15.5,36.4
				L964,356z"/>
			<path class="st1" d="M1036.7,329.2l-4.8,11.7h9.6L1036.7,329.2z M1047.6,356l-3.3-8.2H1029l-3.3,8.2h-8l15.4-36.3h7.3l15.4,36.3
				H1047.6z"/>
		</g>
	</g>
	<path class="st2" d="M452.2,284.2v-108h-36v-36h-71.9v36h-36v36h-36v-36h-71.9v-36h-72v36h-36v36h-36v-36h-36v179.7h431.8v-35.8
		h-36v-36L452.2,284.2z M92.5,320.2h-36v-36h36V320.2z M164.4,320.2h-35.9v-36h36L164.4,320.2z M236.4,320.2h-35.9v-36h36
		L236.4,320.2z M308.3,320.2h-35.9v-36h36L308.3,320.2z M380.2,320.2h-35.9v-36h36L380.2,320.2z"/>
	<polygon class="st2" points="92.5,140.3 92.5,140.3 92.5,47.2 87.2,47.2 87.2,140.3 56.6,140.3 56.6,176.2 92.5,176.2 	"/>
	<polygon class="st2" points="236.4,104.3 236.3,104.3 236.3,11.3 231.1,11.3 231.1,104.3 200.4,104.3 200.4,140.3 236.4,140.3 	"/>
	<polygon class="st2" points="308.3,140.2 308.3,140.2 308.3,47.2 303,47.2 303,140.2 272.3,140.2 272.3,176.2 308.3,176.2 	"/>
	<polygon class="st2" points="452.2,104.3 452.2,104.3 452.2,11.3 446.9,11.3 446.9,104.3 416.2,104.3 416.2,140.3 452.2,140.3 	"/>
</g>
</svg>
